# xmcd
#
# Track frame offsets: 
#        150
#        450
#        25721
#        47108
#        72050
#        95302
#        120896
#        132163
#        149798
#        170270
#        183132
#
# Disc length: 2680 seconds
#
# Revision: 0
# Processed by: cddbd v1.5.2PL0 Copyright (c) Steve Scherf et al.
# Submitted via: ExactAudioCopy v1.3
#
DISCID=830a760b
DTITLE=Rick Derringer - Tend The Fire
DYEAR=1996
DGENRE=Blues Rock, Electric Blues
TTITLE0=I'm Set On You
TTITLE1=Wound Up Tight
TTITLE2=Who Do You Love? 
TTITLE3=Big Time Love
TTITLE4=Talk To Me
TTITLE5=Too Sorry
TTITLE6=Wrong Side Of Paradise
TTITLE7=Tough On Me, Tough Oh You
TTITLE8=I'm In Love
TTITLE9=I'm Doing Fine
TTITLE10=I'll Be Loving You
EXTD=
EXTT0=
EXTT1=
EXTT2=
EXTT3=
EXTT4=
EXTT5=
EXTT6=
EXTT7=
EXTT8=
EXTT9=
EXTT10=
PLAYORDER=
